<?xml version="1.0" standalone="no"?><!DOCTYPE svg PUBLIC "-//W3C//DTD SVG 1.1//EN" "http://www.w3.org/Graphics/SVG/1.1/DTD/svg11.dtd"><svg t="1720103020523" class="icon" viewBox="0 0 1024 1024" version="1.1" xmlns="http://www.w3.org/2000/svg" p-id="6210" xmlns:xlink="http://www.w3.org/1999/xlink" width="200" height="200"><path d="M1016.066593 107.341098l-102.229617-102.229617c-6.815308-6.815308-17.03827-6.815308-23.853577 0l-170.382696 136.306156c0 3.407654-3.407654 10.222962-3.407654 13.630616v61.33777l-139.71381 139.713811C549.218008 342.469218 484.472583 308.392679 443.580736 308.392679c-92.006656 0-109.044925 47.707155-126.083194 85.191348-6.815308 13.630616-13.630616 30.668885-23.853578 40.891847-17.03827 17.03827-40.891847 17.03827-74.968386 20.445923-37.484193 3.407654-81.783694 3.407654-126.083194 30.668885C68.738806 495.813644 14.216344 546.928453 3.993382 628.712146c-6.815308 61.33777 6.815308 156.75208 122.675541 272.612313 81.783694 81.783694 160.159734 122.675541 235.128119 122.675541 78.37604 0 136.306156-47.707155 166.975042-92.006656 27.261231-40.891847 34.076539-85.191348 40.891847-126.083194 3.407654-34.076539 10.222962-61.33777 23.853577-78.37604 10.222962-10.222962 23.853577-13.630616 40.891847-20.445924 37.484193-10.222962 81.783694-20.445923 81.783694-112.452579 0-40.891847-34.076539-119.267887-47.707155-149.936772l139.713811-136.306156h61.33777c6.815308 0 10.222962-3.407654 13.630616-6.815308l136.306156-170.382695c3.407654-6.815308 3.407654-17.03827-3.407654-23.853578z m-715.607321 708.792013c0 3.407654-6.815308 3.407654-10.222962 3.407654s-10.222962 0-13.630615-3.407654l-68.153078-68.153078c-6.815308-6.815308-6.815308-17.03827 0-23.853577s17.03827-6.815308 23.853577 0l68.153078 68.153078c6.815308 3.407654 6.815308 17.03827 0 23.853577z m126.083195-98.821963C361.797042 717.311148 307.27458 662.788686 307.27458 598.043261s54.522463-119.267887 119.267887-119.267887 119.267887 54.522463 119.267887 119.267887-54.522463 119.267887-119.267887 119.267887z" fill="#d4237a" p-id="6211"></path></svg>